<svg xmlns="http://www.w3.org/2000/svg" viewBox="0 0 104 21" role="img" aria-label="BYD">
  <path
    fill="#fff"
    d="M23.46 0.377C21.84 0.347 14.81 0.327 10.71 0.327H0v3.85c8.62 0 18.85-0.02 23.33 0.05 0.8 0.01 1.59 0.09 2.22 0.65 0.59 0.52 0.79 1.34 0.53 2.05-0.42 1.15-1.59 1.43-2.75 1.45-1.78 0.03-6.65 0.04-10.29 0.04-8.93 0.01-5.06 0-13.04 0v3.84c8.62 0 18.87-0.02 23.33 0.05 1.39 0.02 2.86 0.5 2.86 2.06 0 1.56-1.47 2.06-2.86 2.08-4.45 0.07-14.71 0.05-23.33 0.05v3.85c8.65 0 19.97 0.03 23.46-0.05 1.84-0.04 4.57-0.51 6.15-2.91 1.49-2.25 1.13-5.18-0.83-7.05 1.96-1.88 2.32-4.81 0.83-7.05-1.59-2.4-4.31-2.86-6.15-2.91Zm68.72 0.058c-2.28-0.05-5.73-0.08-8.77-0.09-7.42-0.03-2.96-0.02-10.03-0.02v3.86c7.53 0 12.8-0.06 18.61 0.1 1.71 0.05 3.54 0.23 5.19 1.37 1.56 1.08 2.49 2.81 2.49 4.67 0 1.86-0.9 3.59-2.46 4.68-1.65 1.14-3.48 1.32-5.19 1.37-5.81 0.16-11.09 0.1-18.61 0.1l-0.03 3.86c7.57 0 13.01 0.03 18.8-0.11 2.32-0.05 5.17-0.32 7.81-2.21 2.5-1.79 4.01-4.6 4.01-7.7 0-3.1-1.51-5.91-4.01-7.7v0.03c-2.64-1.89-5.5-2.16-7.82-2.21ZM39.61 6.267c-0.01-1.86 0-4.06 0-5.94h-4.45c0 1.9-0.04 5.76 0.04 7.63 0.15 3.62 1.33 4.75 5.03 4.88 2.57 0.09 4.6 0.06 8.15 0.05v-3.88c-2.84 0-4 0-6.1-0.03-2.02-0.04-2.66-0.7-2.67-2.71Zm16.46 2.74Zm0.01 3.88Zm-0.02 0Zm-0.01-3.88Zm0.02 0c2.08 0 4.62-0.01 5.58-0.03 2.02-0.04 2.66-0.68 2.67-2.64h0.03v-6.01h4.44v5.84c-0.01 0.68-0.02 1.3-0.04 1.79-0.15 3.65-1.34 4.76-5.27 4.88-1.28 0.05-4.68 0.05-7.4 0.05h-0.53v7.46h-4.73v-11.34Z"
  />
</svg>
